<svg xmlns="http://www.w3.org/2000/svg" width="128" height="128" version="1.1">
  <path
     style="fill:#5c616c;fill-opacity:1;stroke-width:5.14285707"
     d="m 50.738095,27.222218 c 0,0 0,0 0,5.142857 v 36.977144 c -1.645713,-0.617142 -3.291429,-0.977142 -5.142856,-0.977142 -8.537144,0 -15.428572,6.891428 -15.428572,15.428569 0,8.537142 6.891428,15.428572 15.428572,15.428572 8.537143,0 15.42857,-6.89143 15.42857,-15.428572 v -36 h 30.857143 v 21.548573 c -1.64571,-0.617142 -3.291426,-0.977142 -5.142857,-0.977142 -8.537143,0 -15.428571,6.891428 -15.428571,15.428569 0,8.537142 6.891428,15.428572 15.428571,15.428572 8.537144,0 15.428575,-6.89143 15.428575,-15.428572 V 27.222218 c 0,0 0,0 -5.142858,0 z"
 />
</svg>
