<?xml version="1.0" encoding="UTF-8" standalone="no"?>
<svg
   xmlns:dc="http://purl.org/dc/elements/1.1/"
   xmlns:cc="http://creativecommons.org/ns#"
   xmlns:rdf="http://www.w3.org/1999/02/22-rdf-syntax-ns#"
   xmlns:svg="http://www.w3.org/2000/svg"
   xmlns="http://www.w3.org/2000/svg"
   xmlns:sodipodi="http://sodipodi.sourceforge.net/DTD/sodipodi-0.dtd"
   xmlns:inkscape="http://www.inkscape.org/namespaces/inkscape"
   width="128"
   height="128"
   version="1.1"
   id="svg817"
   sodipodi:docname="cover.svg"
   inkscape:version="0.92.2 2405546, 2018-03-11">
  <metadata
     id="metadata823">
    <rdf:RDF>
      <cc:Work
         rdf:about="">
        <dc:format>image/svg+xml</dc:format>
        <dc:type
           rdf:resource="http://purl.org/dc/dcmitype/StillImage" />
        <dc:title />
      </cc:Work>
    </rdf:RDF>
  </metadata>
  <defs
     id="defs821" />
  <sodipodi:namedview
     pagecolor="#ffffff"
     bordercolor="#666666"
     borderopacity="1"
     objecttolerance="10"
     gridtolerance="10"
     guidetolerance="10"
     inkscape:pageopacity="0"
     inkscape:pageshadow="2"
     inkscape:window-width="1360"
     inkscape:window-height="718"
     id="namedview819"
     showgrid="false"
     inkscape:zoom="3.6"
     inkscape:cx="58.361111"
     inkscape:cy="63"
     inkscape:window-x="1366"
     inkscape:window-y="24"
     inkscape:window-maximized="1"
     inkscape:current-layer="svg817" />
  <path
     style="fill:#5c616c;fill-opacity:1;stroke-width:5.14285707"
     d="m 50.738095,27.222218 c 0,0 0,0 0,5.142857 v 36.977144 c -1.645713,-0.617142 -3.291429,-0.977142 -5.142856,-0.977142 -8.537144,0 -15.428572,6.891428 -15.428572,15.428569 0,8.537142 6.891428,15.428572 15.428572,15.428572 8.537143,0 15.42857,-6.89143 15.42857,-15.428572 v -36 h 30.857143 v 21.548573 c -1.64571,-0.617142 -3.291426,-0.977142 -5.142857,-0.977142 -8.537143,0 -15.428571,6.891428 -15.428571,15.428569 0,8.537142 6.891428,15.428572 15.428571,15.428572 8.537144,0 15.428575,-6.89143 15.428575,-15.428572 V 27.222218 c 0,0 0,0 -5.142858,0 z"
     id="path815"
     inkscape:connector-curvature="0" />
</svg>
