<?xml version="1.0" encoding="UTF-8" standalone="no"?>
<svg
   xmlns:dc="http://purl.org/dc/elements/1.1/"
   xmlns:cc="http://creativecommons.org/ns#"
   xmlns:rdf="http://www.w3.org/1999/02/22-rdf-syntax-ns#"
   xmlns:svg="http://www.w3.org/2000/svg"
   xmlns="http://www.w3.org/2000/svg"
   xmlns:sodipodi="http://sodipodi.sourceforge.net/DTD/sodipodi-0.dtd"
   xmlns:inkscape="http://www.inkscape.org/namespaces/inkscape"
   width="128"
   height="128"
   viewBox="0 0 128 128"
   version="1.1"
   id="svg7"
   sodipodi:docname="find.svg"
   inkscape:version="0.92.2 2405546, 2018-03-11">
  <metadata
     id="metadata11">
    <rdf:RDF>
      <cc:Work
         rdf:about="">
        <dc:format>image/svg+xml</dc:format>
        <dc:type
           rdf:resource="http://purl.org/dc/dcmitype/StillImage" />
        <dc:title></dc:title>
        <dc:title></dc:title>
        <dc:title></dc:title>
      </cc:Work>
    </rdf:RDF>
  </metadata>
  <sodipodi:namedview
     pagecolor="#ffffff"
     bordercolor="#666666"
     borderopacity="1"
     objecttolerance="10"
     gridtolerance="10"
     guidetolerance="10"
     inkscape:pageopacity="0"
     inkscape:pageshadow="2"
     inkscape:window-width="1360"
     inkscape:window-height="717"
     id="namedview9"
     showgrid="false"
     inkscape:zoom="2"
     inkscape:cx="48.166338"
     inkscape:cy="101.49153"
     inkscape:window-x="1366"
     inkscape:window-y="26"
     inkscape:window-maximized="1"
     inkscape:current-layer="svg7" />
  <defs
     id="defs3">
    <style
       id="current-color-scheme"
       type="text/css">
   .ColorScheme-Text { color:#5c616c; } .ColorScheme-Highlight { color:#5294e2; }
  </style>
  </defs>
  <path
     style="color:#5c616c;fill:currentColor;stroke-width:7.02526617"
     class="ColorScheme-Text"
     d="m 56.129196,16.081354 c -21.278826,0 -38.638962,17.384723 -38.638962,38.638964 0,21.25424 17.360136,38.638971 38.638962,38.638971 8.093106,0 15.720508,-2.513929 21.953957,-6.805735 L 103.98882,112.45923 A 7.0639053,7.0639053 0 1 0 113.8681,102.3604 L 87.962433,76.454736 C 92.253396,70.23035 94.9877,62.798672 94.9877,54.720318 94.9877,33.466077 77.407322,16.081354 56.129196,16.081354 Z m 0,14.050533 c 13.681003,0 24.588431,10.922883 24.588431,24.588431 0,13.664845 -10.907428,24.588432 -24.588431,24.588432 -13.681001,0 -24.588429,-10.923587 -24.588429,-24.588432 0,-13.665548 10.907428,-24.588431 24.588429,-24.588431 z"
     id="path5"
     inkscape:connector-curvature="0" />
</svg>
