<?xml version="1.0" encoding="UTF-8" standalone="no"?>
<svg
   xmlns:dc="http://purl.org/dc/elements/1.1/"
   xmlns:cc="http://creativecommons.org/ns#"
   xmlns:rdf="http://www.w3.org/1999/02/22-rdf-syntax-ns#"
   xmlns:svg="http://www.w3.org/2000/svg"
   xmlns="http://www.w3.org/2000/svg"
   xmlns:xlink="http://www.w3.org/1999/xlink"
   xmlns:sodipodi="http://sodipodi.sourceforge.net/DTD/sodipodi-0.dtd"
   xmlns:inkscape="http://www.inkscape.org/namespaces/inkscape"
   width="64"
   height="64"
   version="1.1"
   viewBox="0 0 64 64"
   id="svg14"
   sodipodi:docname="goldfinch.svg"
   inkscape:version="0.92.2 2405546, 2018-03-11">
  <metadata
     id="metadata20">
    <rdf:RDF>
      <cc:Work
         rdf:about="">
        <dc:format>image/svg+xml</dc:format>
        <dc:type
           rdf:resource="http://purl.org/dc/dcmitype/StillImage" />
        <dc:title></dc:title>
        <cc:license
           rdf:resource="" />
      </cc:Work>
    </rdf:RDF>
  </metadata>
  <defs
     id="defs18">
    <linearGradient
       inkscape:collect="always"
       id="linearGradient945">
      <stop
         style="stop-color:#909090;stop-opacity:1"
         offset="0"
         id="stop941" />
      <stop
         id="stop957"
         offset="0.68416214"
         style="stop-color:#020201;stop-opacity:1" />
      <stop
         style="stop-color:#b2b2b1;stop-opacity:1"
         offset="1"
         id="stop943" />
    </linearGradient>
    <radialGradient
       inkscape:collect="always"
       xlink:href="#linearGradient945"
       id="radialGradient947"
       cx="32"
       cy="32.000999"
       fx="32"
       fy="32.000999"
       r="28.81356"
       gradientTransform="matrix(0.97101128,-6.261912e-8,5.224382e-8,0.97173169,0.92763931,0.10886367)"
       gradientUnits="userSpaceOnUse"
       spreadMethod="pad" />
  </defs>
  <sodipodi:namedview
     pagecolor="#ffffff"
     bordercolor="#666666"
     borderopacity="1"
     objecttolerance="10"
     gridtolerance="10"
     guidetolerance="10"
     inkscape:pageopacity="0"
     inkscape:pageshadow="2"
     inkscape:window-width="1360"
     inkscape:window-height="716"
     id="namedview16"
     showgrid="false"
     inkscape:zoom="3.1015625"
     inkscape:cx="44.208956"
     inkscape:cy="24.377737"
     inkscape:window-x="1366"
     inkscape:window-y="24"
     inkscape:window-maximized="1"
     inkscape:current-layer="svg14" />
  <ellipse
     style="fill:url(#radialGradient947);fill-opacity:1;stroke:#2c2121;stroke-width:0.31400001;stroke-miterlimit:4;stroke-dasharray:none;stroke-opacity:0.62085307"
     cx="32"
     cy="31.205244"
     id="circle4"
     rx="28.81356"
     ry="28" />
  <path
     style="opacity:0.95700001;fill:#f0e300;fill-opacity:0.78854627"
     d="m 22.821459,6.0744282 c -4.526802,2.1816357 -2.042996,1.0621563 -2.042996,1.0621563 -0.533264,-0.4055599 -7.748961,4.2032475 -8.685615,6.3282325 0,0 0.08472,-0.0916 0,0 0.533311,3.660537 3.310535,6.627629 6.159286,10.140768 -1.529026,2.533297 -2.325594,5.440984 -2.30116,8.399855 0.0015,0.331012 2.009222,7.431381 2.031203,7.761665 C 10.618993,40.193515 2.7355147,36.502613 4.4302568,27.70924 3.981395,28.848406 4.2249285,28.476158 4.0042889,29.555101 c -0.2084144,2.659405 0.029621,0.617313 0.013289,2.337141 0.181406,2.559305 0.7137252,5.081532 1.5820132,7.49587 3.410141,1.13418 8.1756579,1.045782 12.3825859,0.378993 1.576109,2.834439 10.827866,6.786951 13.734162,8.226258 -1.547698,1.888762 -5.717705,9.222356 -15.533328,5.064956 3.768202,3.70378 9.409475,4.347584 9.409475,4.222692 2.210161,-2.450758 4.811876,-5.868507 6.123853,-9.287648 0.07807,0.0072 0.156203,0.01391 0.234376,0.02 3.165155,-0.0048 11.101504,-6.057302 13.730362,-7.820065 3.56808,5.187326 3.539514,14.844402 -4.257891,16.273959 4.800111,-1.164585 8.510923,-3.671331 9.929593,-6.282132 -0.936143,-3.299543 -3.220944,-6.971679 -5.671702,-9.991827 1.447813,-2.42014 2.230223,-5.179964 2.267961,-7.999861 -3.4e-5,-0.353152 -2.031225,-7.452089 -2.054625,-7.804465 4.996255,-0.269438 15.695091,1.061615 13.206005,14.097671 1.15825,-2.939359 0.674765,-4.065698 0.793735,-7.22279 -0.0106,-0.356794 -0.01,-0.713988 -0.0352,-1.070382 -0.0661,-0.929984 -0.17738,-1.854768 -0.33594,-2.773352 -0.14687,-0.827186 -0.33387,-1.646371 -0.55463,-2.456957 -4.154925,-1.480775 -9.101039,-1.221979 -13.07397,-0.57419 C 44.315839,21.56927 35.108158,17.637486 32.211251,16.205513 33.72626,12.951695 37.244114,9.2739701 40.940866,8.2061715 44.249703,7.2504212 45.850702,7.9086688 47.878401,9.4595163 44.632489,7.1205659 43.563792,6.529847 40.230612,5.4635 39.896738,5.3715 39.563783,5.285503 39.226729,5.205704 c -2.90315,2.29496 -5.398706,6.776282 -7.015478,10.999809 -0.08598,-0.06755 -0.17265,-0.134221 -0.259996,-0.199996 -3.14856,0.0032 -11.077867,5.855802 -13.699121,7.600068 C 13.650937,14.641083 15.192541,9.4220927 22.821459,6.0744282 Z"
     id="path6"
     inkscape:connector-curvature="0"
     sodipodi:nodetypes="ccccccccccccccccccccccccccccccsccccccc" />
  <path
     style="opacity:0.2;fill:#ffffff"
     d="m 32,3.6726562 v 0.029297 A 27.999516,27.999516 0 0 0 4,31.7 27.999516,27.999516 0 0 0 4.0175781,32.192188 27.999516,27.999516 0 0 1 32,4.7 V 4.6726562 A 27.999516,27.999516 0 0 1 59.974609,32.155078 27.999516,27.999516 0 0 0 60,31.672656 27.999516,27.999516 0 0 0 32,3.6726562 Z"
     id="path12"
     inkscape:connector-curvature="0" />
  <circle
     style="opacity:1;fill:#af0c0c;fill-opacity:1;stroke:none;stroke-width:0;stroke-miterlimit:4;stroke-dasharray:none;stroke-dashoffset:0;stroke-opacity:1;paint-order:normal"
     id="path827"
     cx="31.728626"
     cy="32.01376"
     r="16.271" />
  <path
     style="fill:#fffdfe;fill-opacity:1"
     d="m 26.666748,24.84175 c -0.486931,-0.02 -0.887844,0.382593 -0.888004,0.872785 v 14.251153 c -6e-6,0.672189 0.722987,1.092181 1.301497,0.756387 l 6.132094,-3.562938 6.132494,-3.562738 c 0.57821,-0.336195 0.57821,-1.17598 0,-1.512174 l -6.132494,-3.562939 -6.132094,-3.562738 c -0.125938,-0.074 -0.268115,-0.113998 -0.413493,-0.117998 z"
     id="path10"
     inkscape:connector-curvature="0" />
</svg>
